<svg xmlns="http://www.w3.org/2000/svg" viewBox="0 0 640 360" width="640" height="360" font-family="system-ui, -apple-system, Arial, sans-serif" font-size="12">
<rect width="640" height="360" fill="white"/>
<text x="320" y="22" text-anchor="middle" font-size="15" font-weight="600">Mean cyclomatic complexity over iterations</text>
<line x1="60" y1="40" x2="60" y2="310" stroke="#444" stroke-width="1"/>
<line x1="60" y1="310" x2="510" y2="310" stroke="#444" stroke-width="1"/>
<line x1="60" y1="310" x2="510" y2="310" stroke="#eee" stroke-width="1"/>
<text x="54" y="314" text-anchor="end" fill="#444">0.00</text>
<line x1="60" y1="257.5728155339806" x2="510" y2="257.5728155339806" stroke="#eee" stroke-width="1"/>
<text x="54" y="261.5728155339806" text-anchor="end" fill="#444">0.50</text>
<line x1="60" y1="205.14563106796115" x2="510" y2="205.14563106796115" stroke="#eee" stroke-width="1"/>
<text x="54" y="209.14563106796115" text-anchor="end" fill="#444">1.00</text>
<line x1="60" y1="152.71844660194174" x2="510" y2="152.71844660194174" stroke="#eee" stroke-width="1"/>
<text x="54" y="156.71844660194174" text-anchor="end" fill="#444">1.50</text>
<line x1="60" y1="100.2912621359223" x2="510" y2="100.2912621359223" stroke="#eee" stroke-width="1"/>
<text x="54" y="104.2912621359223" text-anchor="end" fill="#444">2.00</text>
<line x1="60" y1="47.86407766990288" x2="510" y2="47.86407766990288" stroke="#eee" stroke-width="1"/>
<text x="54" y="51.86407766990288" text-anchor="end" fill="#444">2.50</text>
<line x1="60" y1="310" x2="60" y2="314" stroke="#444"/>
<text x="60" y="328" text-anchor="middle" fill="#444">1</text>
<line x1="172.5" y1="310" x2="172.5" y2="314" stroke="#444"/>
<text x="172.5" y="328" text-anchor="middle" fill="#444">2</text>
<line x1="285" y1="310" x2="285" y2="314" stroke="#444"/>
<text x="285" y="328" text-anchor="middle" fill="#444">3</text>
<line x1="397.5" y1="310" x2="397.5" y2="314" stroke="#444"/>
<text x="397.5" y="328" text-anchor="middle" fill="#444">4</text>
<line x1="510" y1="310" x2="510" y2="314" stroke="#444"/>
<text x="510" y="328" text-anchor="middle" fill="#444">5</text>
<text x="285" y="348" text-anchor="middle" fill="#222">iteration</text>
<text x="20" y="175" text-anchor="middle" fill="#222" transform="rotate(-90, 20, 175)">mean complexity (avg over templates)</text>
<path d="M 60.00 238.38 L 172.50 201.69 L 285.00 201.69 L 397.50 201.69 L 510.00 200.22" fill="none" stroke="#2c7be5" stroke-width="2"/>
<circle cx="60.00" cy="238.38" r="3" fill="#2c7be5"/>
<circle cx="172.50" cy="201.69" r="3" fill="#2c7be5"/>
<circle cx="285.00" cy="201.69" r="3" fill="#2c7be5"/>
<circle cx="397.50" cy="201.69" r="3" fill="#2c7be5"/>
<circle cx="510.00" cy="200.22" r="3" fill="#2c7be5"/>
<rect x="522" y="42" width="14" height="3" fill="#2c7be5"/>
<text x="540" y="50" fill="#222">polycoder-full</text>
<path d="M 60.00 117.59 L 172.50 112.87 L 285.00 75.65 L 397.50 64.64 L 510.00 70.93" fill="none" stroke="#e84a5f" stroke-width="2"/>
<circle cx="60.00" cy="117.59" r="3" fill="#e84a5f"/>
<circle cx="172.50" cy="112.87" r="3" fill="#e84a5f"/>
<circle cx="285.00" cy="75.65" r="3" fill="#e84a5f"/>
<circle cx="397.50" cy="64.64" r="3" fill="#e84a5f"/>
<circle cx="510.00" cy="70.93" r="3" fill="#e84a5f"/>
<rect x="522" y="58" width="14" height="3" fill="#e84a5f"/>
<text x="540" y="66" fill="#222">polycoder-coder-only</text>
<rect x="522" y="74" width="14" height="3" fill="#3aa17e"/>
<text x="540" y="82" fill="#222">lovable</text>
</svg>